<svg width="32" height="32" viewBox="0 0 32 32" fill="none" xmlns="http://www.w3.org/2000/svg">
<path fill-rule="evenodd" clip-rule="evenodd" d="M16 29C23.1797 29 29 23.1797 29 16C29 8.8203 23.1797 3 16 3C8.8203 3 3 8.8203 3 16C3 23.1797 8.8203 29 16 29ZM21 11C21.5523 11 22 11.4477 22 12V13.4286C22 13.9809 21.5523 14.4286 21 14.4286H18.7143C18.162 14.4286 17.7143 14.8763 17.7143 15.4286V22C17.7143 22.5523 17.2666 23 16.7143 23H15.2857C14.7334 23 14.2857 22.5523 14.2857 22L14.2857 15.4286C14.2857 14.8763 13.838 14.4286 13.2857 14.4286H11C10.4477 14.4286 10 13.9809 10 13.4286V12C10 11.4477 10.4477 11 11 11H21Z" fill="#212123"/>
</svg>
