<svg width="32" height="32" viewBox="0 0 32 32" fill="none" xmlns="http://www.w3.org/2000/svg">
<path fill-rule="evenodd" clip-rule="evenodd" d="M21.7142 20.4509C21.8053 19.9539 22.0871 19.5165 22.4668 19.1833C24.5153 17.3856 25.8084 14.748 25.8084 11.8084C25.8084 6.39139 21.417 2 16 2C10.5829 2 6.19156 6.39139 6.19156 11.8084C6.19156 14.748 7.48472 17.3856 9.5332 19.1833C9.91293 19.5165 10.1947 19.9539 10.2858 20.4508L10.6221 22.2854C10.7962 23.235 11.6239 23.9247 12.5894 23.9247H19.4106C20.3761 23.9247 21.2037 23.235 21.3778 22.2854L21.7142 20.4509ZM12.7305 25.9762C12.7305 25.3743 13.2184 24.8864 13.8203 24.8864H18.1796C18.7815 24.8864 19.2695 25.3743 19.2695 25.9762V25.9762C19.2695 26.5781 18.7815 27.066 18.1796 27.066H13.8203C13.2184 27.066 12.7305 26.5781 12.7305 25.9762V25.9762ZM18.1797 29.064C18.1797 28.4621 17.6917 27.9742 17.0898 27.9742H14.9102C14.3083 27.9742 13.8203 28.4621 13.8203 29.064V29.064C13.8203 29.6659 14.3083 30.1538 14.9102 30.1538H17.0898C17.6917 30.1538 18.1797 29.6659 18.1797 29.064V29.064Z" fill="#212123"/>
</svg>
