<svg width="164" height="22" viewBox="0 0 164 22" fill="none" xmlns="http://www.w3.org/2000/svg">
<path d="M11.5392 22C9.43335 22 7.49941 21.5282 5.73737 20.5846C3.97533 19.641 2.57859 18.3385 1.54716 16.6769C0.515719 14.9949 0 13.0974 0 10.9846C0 8.89231 0.515719 7.01538 1.54716 5.35385C2.57859 3.67179 3.97533 2.35897 5.73737 1.41538C7.49941 0.471794 9.43335 0 11.5392 0C13.6665 0 15.6005 0.471794 17.341 1.41538C19.1031 2.35897 20.4891 3.67179 21.499 5.35385C22.5305 7.01538 23.0462 8.89231 23.0462 10.9846C23.0462 13.0974 22.5305 14.9949 21.499 16.6769C20.4891 18.3385 19.1031 19.641 17.341 20.5846C15.579 21.5282 13.6451 22 11.5392 22ZM11.5392 18.1538C12.893 18.1538 14.0856 17.8667 15.117 17.2923C16.1484 16.6974 16.9542 15.8564 17.5344 14.7692C18.1146 13.6821 18.4047 12.4205 18.4047 10.9846C18.4047 9.54872 18.1146 8.29743 17.5344 7.23077C16.9542 6.14359 16.1484 5.31282 15.117 4.73846C14.0856 4.1641 12.893 3.87692 11.5392 3.87692C10.1854 3.87692 8.9821 4.1641 7.92917 4.73846C6.89774 5.31282 6.09193 6.14359 5.51174 7.23077C4.93156 8.29743 4.64147 9.54872 4.64147 10.9846C4.64147 12.4205 4.93156 13.6821 5.51174 14.7692C6.09193 15.8564 6.89774 16.6974 7.92917 17.2923C8.9821 17.8667 10.1854 18.1538 11.5392 18.1538Z" fill="white"/>
<path d="M30.8514 0.307692V13.6C30.8514 15.0564 31.249 16.1744 32.044 16.9538C32.8391 17.7128 33.9565 18.0923 35.3962 18.0923C36.8574 18.0923 37.9856 17.7128 38.7806 16.9538C39.5757 16.1744 39.9732 15.0564 39.9732 13.6V0.307692H44.518V13.5692C44.518 15.3949 44.099 16.9436 43.2609 18.2154C42.4444 19.4667 41.3377 20.4103 39.941 21.0462C38.5657 21.6821 37.0293 22 35.3318 22C33.6557 22 32.13 21.6821 30.7548 21.0462C29.401 20.4103 28.3266 19.4667 27.5315 18.2154C26.7364 16.9436 26.3389 15.3949 26.3389 13.5692V0.307692H30.8514Z" fill="white"/>
<path d="M60.4816 21.7846L55.5178 13.4154H53.3905V21.7846H48.8779V0.307692H57.3228C59.0634 0.307692 60.5461 0.605128 61.7709 1.2C62.9957 1.77436 63.909 2.5641 64.5106 3.56923C65.1338 4.55385 65.4454 5.66154 65.4454 6.89231C65.4454 8.30769 65.0156 9.58974 64.1561 10.7385C63.2966 11.8667 62.018 12.6462 60.3204 13.0769L65.7032 21.7846H60.4816ZM53.3905 10.1846H57.1617C58.3865 10.1846 59.2997 9.90769 59.9014 9.35385C60.5031 8.77949 60.8039 7.98974 60.8039 6.98461C60.8039 6 60.5031 5.24102 59.9014 4.70769C59.2997 4.15385 58.3865 3.87692 57.1617 3.87692H53.3905V10.1846Z" fill="white"/>
<path d="M81.7197 18.3692H89.1332V21.7846H77.2072V0.307692H81.7197V18.3692Z" fill="white"/>
<path d="M102.445 22C100.339 22 98.4049 21.5282 96.6428 20.5846C94.8808 19.641 93.4841 18.3385 92.4526 16.6769C91.4212 14.9949 90.9055 13.0974 90.9055 10.9846C90.9055 8.89231 91.4212 7.01538 92.4526 5.35385C93.4841 3.67179 94.8808 2.35897 96.6428 1.41538C98.4049 0.471794 100.339 0 102.445 0C104.572 0 106.506 0.471794 108.246 1.41538C110.009 2.35897 111.395 3.67179 112.404 5.35385C113.436 7.01538 113.952 8.89231 113.952 10.9846C113.952 13.0974 113.436 14.9949 112.404 16.6769C111.395 18.3385 110.009 19.641 108.246 20.5846C106.484 21.5282 104.551 22 102.445 22ZM102.445 18.1538C103.798 18.1538 104.991 17.8667 106.022 17.2923C107.054 16.6974 107.86 15.8564 108.44 14.7692C109.02 13.6821 109.31 12.4205 109.31 10.9846C109.31 9.54872 109.02 8.29743 108.44 7.23077C107.86 6.14359 107.054 5.31282 106.022 4.73846C104.991 4.1641 103.798 3.87692 102.445 3.87692C101.091 3.87692 99.8876 4.1641 98.8346 4.73846C97.8032 5.31282 96.9974 6.14359 96.4172 7.23077C95.837 8.29743 95.5469 9.54872 95.5469 10.9846C95.5469 12.4205 95.837 13.6821 96.4172 14.7692C96.9974 15.8564 97.8032 16.6974 98.8346 17.2923C99.8876 17.8667 101.091 18.1538 102.445 18.1538Z" fill="white"/>
<path d="M132.974 6.76923C132.458 5.86667 131.749 5.17949 130.846 4.70769C129.944 4.2359 128.891 4 127.688 4C126.355 4 125.174 4.28718 124.142 4.86154C123.111 5.4359 122.305 6.25641 121.725 7.32308C121.144 8.38974 120.854 9.62051 120.854 11.0154C120.854 12.4513 121.144 13.7026 121.725 14.7692C122.326 15.8359 123.154 16.6564 124.207 17.2308C125.259 17.8051 126.484 18.0923 127.881 18.0923C129.6 18.0923 131.008 17.6615 132.104 16.8C133.199 15.9179 133.919 14.6974 134.263 13.1385H126.527V9.84615H138.711V13.6C138.41 15.0974 137.766 16.4821 136.777 17.7538C135.789 19.0256 134.51 20.0513 132.942 20.8308C131.394 21.5897 129.654 21.9692 127.72 21.9692C125.55 21.9692 123.583 21.5077 121.821 20.5846C120.081 19.641 118.706 18.3385 117.696 16.6769C116.707 15.0154 116.213 13.1282 116.213 11.0154C116.213 8.90256 116.707 7.01538 117.696 5.35385C118.706 3.67179 120.081 2.36923 121.821 1.44615C123.583 0.502564 125.539 0.0307688 127.688 0.0307688C130.223 0.0307688 132.426 0.62564 134.295 1.81538C136.165 2.98461 137.454 4.6359 138.163 6.76923H132.974Z" fill="white"/>
<path d="M152.493 22C150.387 22 148.453 21.5282 146.691 20.5846C144.929 19.641 143.532 18.3385 142.501 16.6769C141.47 14.9949 140.954 13.0974 140.954 10.9846C140.954 8.89231 141.47 7.01538 142.501 5.35385C143.532 3.67179 144.929 2.35897 146.691 1.41538C148.453 0.471794 150.387 0 152.493 0C154.62 0 156.554 0.471794 158.295 1.41538C160.057 2.35897 161.443 3.67179 162.453 5.35385C163.484 7.01538 164 8.89231 164 10.9846C164 13.0974 163.484 14.9949 162.453 16.6769C161.443 18.3385 160.057 19.641 158.295 20.5846C156.533 21.5282 154.599 22 152.493 22ZM152.493 18.1538C153.847 18.1538 155.039 17.8667 156.071 17.2923C157.102 16.6974 157.908 15.8564 158.488 14.7692C159.068 13.6821 159.359 12.4205 159.359 10.9846C159.359 9.54872 159.068 8.29743 158.488 7.23077C157.908 6.14359 157.102 5.31282 156.071 4.73846C155.039 4.1641 153.847 3.87692 152.493 3.87692C151.139 3.87692 149.936 4.1641 148.883 4.73846C147.852 5.31282 147.046 6.14359 146.466 7.23077C145.885 8.29743 145.595 9.54872 145.595 10.9846C145.595 12.4205 145.885 13.6821 146.466 14.7692C147.046 15.8564 147.852 16.6974 148.883 17.2923C149.936 17.8667 151.139 18.1538 152.493 18.1538Z" fill="white"/>
</svg>
